# xmcd
#
# Track frame offsets: 
#        150
#        8912
#        22791
#        33971
#        43803
#        58209
#        65431
#        85210
#        98649
#        109511
#        120702
#        133384
#        148206
#        163900
#        178230
#
# Disc length: 2520 seconds
#
# Revision: 0
# Processed by: cddbd v1.5.1PL0 Copyright (c) Steve Scherf et al.
# Submitted via: ExactAudioCopy v0.95a5
#
DISCID=d309d60f
DTITLE=Various Artist - Country Outaws
DYEAR=1900
DGENRE=Country
TTITLE0=Waylon Jennings/Abiline
TTITLE1=Freddy Fender/These Arms Are Mine
TTITLE2=Faron Young/Live Fast, Love Hard, Die Young
TTITLE3=Ferlin Husky/Truck Drivin' Son Of A Gun
TTITLE4=Johnny Lee/Long Black Veil
TTITLE5=Conway Twitty/Treat Me Mean, Treat Me Cruel
TTITLE6=Jerry Lee Lewis/No Headstone On My Grave
TTITLE7=Kenny Rogers/Ruby Dont't Take Your Love To Town
TTITLE8=Tom T. Hall/The Year That Clayton Delaney Died
TTITLE9=Jimmy Dean/Nine Pound Hammer
TTITLE10=George Jones/Brothers Of A Bottle
TTITLE11=Merle Haggard/The Fightin' Side Of Me
TTITLE12=Lee Greenwood/Fools Gold
TTITLE13=Willie Nelson/Face Of A Fighter
TTITLE14=Gary Morris/No Place To Hide
EXTD=
EXTT0=
EXTT1=
EXTT2=
EXTT3=
EXTT4=
EXTT5=
EXTT6=
EXTT7=
EXTT8=
EXTT9=
EXTT10=
EXTT11=
EXTT12=
EXTT13=
EXTT14=
PLAYORDER=
